<svg width="36" height="30" viewBox="0 0 36 30" fill="none" xmlns="http://www.w3.org/2000/svg">
<path d="M36.0001 6.0005C36.0001 2.6853 33.3154 0 30.001 0H11.993C8.6813 0 6.0018 2.6853 6.0018 6.0005L6.0045 6.9983C7.6645 6.9983 9.0081 8.3422 9.0028 10.0026L8.9975 12.0063L11.0008 12.001C12.6607 11.9957 14.0042 13.3396 14.0042 14.9973C14.0042 16.655 12.6607 17.9989 11.0008 18.0042L8.9975 18.0095L9.0028 19.9972C9.0081 21.6524 7.6645 22.9963 6.0045 23.0016L6.0018 23.9993C6.0018 27.3094 8.6866 29.9946 11.9957 29.9999H30.001C33.3154 29.9946 36.0001 27.3094 36.0001 23.9993V21.0031C36.0001 20.4479 35.5523 19.9999 34.9971 19.9999H27.0054C25.3507 19.9999 24.0071 18.6561 24.0019 17.001V12.9988C24.0071 11.3385 25.3454 10.0053 27.0027 10.0053L34.9971 10C35.5523 9.9947 36.0001 9.5467 36.0001 8.9967V6.0005ZM0.9978 14.002C0.4479 13.9968 0 14.4447 0 14.9973C0 15.5499 0.4479 15.9979 0.9978 16.0031L4.9963 16.0084L5.0016 19.9972C5.0069 20.5472 5.4547 20.9952 6.0071 20.9952C6.5596 20.9952 7.0075 20.5472 7.0022 19.9972L6.9969 16.0084L11.0008 16.0031C11.5557 15.9979 12.0036 15.5499 12.0036 14.9973C12.0036 14.4447 11.5557 13.9968 11.0008 14.002L6.9969 14.0073L7.0022 10.0026C7.0075 9.4474 6.5596 8.9994 6.0071 8.9994C5.4547 8.9994 4.9963 9.4527 4.9963 10.0053V14.0073L0.9978 14.002ZM26.4974 4.0021H15.4993C15.2242 4.0021 14.9992 3.7769 14.9992 3.4992C14.9992 3.2214 15.2242 2.9963 15.5019 2.9963L26.4974 3.0016C26.7776 2.9963 27.0027 3.2214 27.0027 3.4992C27.0027 3.7769 26.7776 4.0021 26.4974 4.0021ZM36.0001 17.001V12.9988C36.0001 12.4436 35.5523 11.9957 34.9971 12.001H27.0054C26.4556 11.9957 26.0077 12.4436 26.0025 12.9988V17.001C26.0077 17.551 26.4556 17.9989 27.0054 18.0042H34.9971C35.5523 17.9989 36.0001 17.551 36.0001 17.001Z" fill="#50D2B3"/>
</svg>
