<svg width="24" height="24" viewBox="0 0 24 24" fill="none" xmlns="http://www.w3.org/2000/svg">
<path fill-rule="evenodd" clip-rule="evenodd" d="M13.875 1.92197C14.0727 2.2956 14.2914 2.60035 14.5116 2.97288C14.7299 3.3421 14.8986 3.68967 15.1091 4.06296C15.2156 4.25165 15.2799 4.45349 15.3748 4.64098C15.5537 4.99412 16.0418 6.11189 16.125 6.46901L18.0304 5.98378C18.4806 5.83359 19.3617 5.49428 19.7344 5.29709C19.6725 5.0654 18.8173 4.3272 18.5953 4.13919C17.5217 3.22959 16.2011 2.53642 14.8288 2.14003C14.5632 2.06333 14.1638 1.9284 13.875 1.92197ZM24 12.5682V11.4085C23.9223 9.88911 23.5396 8.36842 22.8441 6.87495C22.7937 6.76656 22.7781 6.71732 22.7247 6.61935L21.4489 4.61371C21.3356 4.46842 21.2472 4.36368 21.1302 4.22938C20.9989 4.07871 20.9492 4.00253 20.8009 3.85555C20.4423 3.50016 20.0829 3.11525 19.6983 2.80186C19.5482 2.6796 19.4413 2.58048 19.2864 2.4637C17.378 1.02456 14.8336 -1.90735e-06 12.375 -1.90735e-06H11.625C9.84393 -1.90735e-06 7.69841 0.679152 6.43155 1.3691C5.48056 1.88702 5.0841 2.16562 4.27639 2.82341C3.90484 3.12595 3.52743 3.53107 3.17555 3.87888C2.50396 4.54272 1.67005 5.82572 1.24267 6.68045C1.19976 6.76637 1.18176 6.82133 1.14077 6.90672C0.816111 7.58324 0.570217 8.24559 0.364929 9.03716C0.0119035 10.3982 0.000287988 11.057 0 12.4046V12.4693C0 13.2857 0.198376 14.3397 0.374625 15.001C0.556634 15.684 0.961882 16.807 1.27531 17.3817C1.32369 17.4704 1.36343 17.5393 1.4062 17.6258C2.09876 19.0259 3.51394 20.6393 4.74058 21.5572C5.55616 22.1676 6.08227 22.4485 6.99942 22.9078C7.1845 23.0005 7.3258 23.05 7.52682 23.1304C10.5098 24.3232 14.1683 24.3312 17.0307 22.8911C17.4886 22.6607 17.4424 22.731 17.9915 22.3986C18.6713 21.9872 19.9487 21.115 20.4579 20.5056C20.5874 20.3505 20.6847 20.2607 20.8243 20.1219C21.3153 19.6338 22.0415 18.6396 22.3595 18.0477C22.4513 17.8767 22.526 17.7567 22.6246 17.5628C23.4522 15.9348 23.914 14.2568 24 12.5682ZM4.26564 5.29709C5.56456 5.98445 7.81937 6.44232 7.875 6.46901C8.02955 5.80556 9.07778 3.67771 9.47026 3.00163C9.59765 2.78222 10.0848 2.07259 10.125 1.92197C9.66115 1.93229 8.72005 2.27136 8.32978 2.42362C7.75956 2.64614 7.27939 2.87592 6.78174 3.17251C6.07406 3.59424 5.39705 4.09455 4.81641 4.67597C4.716 4.77653 4.62759 4.85338 4.53548 4.95759C4.45965 5.04346 4.32098 5.21444 4.26564 5.29709ZM9.65625 6.7034C10.1166 6.81068 12.0272 6.86304 12.6109 6.84557L14.3437 6.7034L13.8745 5.532C13.6431 5.01591 12.3662 2.61216 12 2.34384C11.565 2.66256 10.1644 5.43792 9.89783 6.10119L9.65625 6.7034ZM20.8125 6.7034C20.6553 6.78653 20.5511 6.83328 20.3635 6.91071C19.8639 7.11692 19.492 7.31977 18.8736 7.5301C18.5253 7.64852 18.1291 7.77716 17.8032 7.86605L16.6406 8.10975C16.7506 8.58173 16.8604 9.00601 16.9493 9.53554C17.0301 10.0169 17.1094 10.593 17.1094 11.1098H22.2187C22.2187 9.09116 20.8404 6.80789 20.8125 6.7034ZM8.62501 11.1098H15.375C15.375 10.0858 14.9586 8.68647 14.9531 8.43788C14.4162 8.43788 14.0372 8.52903 13.5956 8.5334L11.8594 8.57847C11.3288 8.57847 10.9399 8.53196 10.4517 8.53306C9.99354 8.53417 9.60062 8.43788 9.09376 8.43788C8.93643 8.76577 8.62501 10.5823 8.62501 11.1098ZM1.78126 11.1098H6.8906C6.8906 10.2501 7.16683 8.93617 7.35935 8.10975C6.51382 8.09089 4.08569 7.17869 3.1875 6.7034L2.70277 7.67184C2.2958 8.4793 1.78126 10.1868 1.78126 11.1098ZM9.09376 15.5631C9.60062 15.5631 9.99354 15.4669 10.4517 15.4679C11.7806 15.471 12.8577 15.3247 14.3239 15.5362C14.7139 15.5924 14.8857 15.6389 14.9465 15.5101C15.1177 15.1467 15.375 13.2343 15.375 12.8912H8.62501C8.62501 13.4152 8.93691 15.2363 9.09376 15.5631ZM16.6406 15.8913C16.8271 15.8955 17.0203 15.9536 17.1938 15.9943C18.752 16.3605 18.9269 16.4778 20.3302 17.0768C20.5241 17.1595 20.6445 17.2087 20.8125 17.2976C20.8547 17.1396 21.1636 16.689 21.3084 16.3403C21.7164 15.3573 22.2187 14.0185 22.2187 12.8912H17.1094C17.1094 13.433 17.0242 13.9644 16.942 14.4582L16.6406 15.8913ZM6.8906 12.8912H1.78126C1.78126 13.8142 2.2958 15.5217 2.70277 16.3292L3.1875 17.2976C3.7547 16.9975 4.54407 16.7 5.12917 16.4736C5.57263 16.302 6.27695 16.1135 6.76994 16.005C6.96874 15.9613 7.17399 15.8955 7.35935 15.8913C7.24814 15.4138 7.1509 14.9789 7.05735 14.4589L6.8906 12.8912ZM12 21.6571C12.1266 21.5644 12.5472 20.8873 12.6758 20.6922C13.1788 19.9288 13.7441 18.7429 14.1107 17.9083C14.193 17.7209 14.2927 17.5168 14.3437 17.2976C14.1157 17.2445 13.5017 17.2006 13.2188 17.2038C12.8206 17.2083 12.4971 17.157 12.0469 17.157C11.2012 17.157 10.4203 17.234 9.65625 17.2976C9.69974 17.4844 9.81681 17.7041 9.88396 17.8668C10.2243 18.6912 11.5896 21.3565 12 21.6571ZM7.875 17.532L5.97494 18.0226C5.52357 18.174 4.6645 18.4928 4.26564 18.7039C4.59442 19.1949 5.55285 20.0177 6.0467 20.3448C6.16118 20.4206 6.26212 20.4868 6.3848 20.5692C6.53484 20.6699 6.59206 20.729 6.74944 20.814C7.47076 21.2032 9.25768 22.0598 10.125 22.0791L8.90623 19.9227L8.11609 18.1815C8.03075 17.968 7.92751 17.7574 7.875 17.532ZM13.875 22.0791C14.674 22.0612 16.449 21.3019 17.2236 20.8339C17.9677 20.3843 18.5685 19.9403 19.1836 19.3251C19.3451 19.1634 19.6763 18.9213 19.7344 18.7039C19.4809 18.5698 19.2034 18.4711 18.9219 18.3446C18.0719 17.9622 16.128 17.5334 16.125 17.532C16.1086 17.7292 15.747 18.548 15.6575 18.7521L15.1261 19.9082C15.0225 20.1154 14.9379 20.2377 14.8287 20.4546C14.5667 20.9751 14.1173 21.6211 13.875 22.0791Z" fill="#65849D"/>
</svg>
