<svg width="266" height="225" viewBox="0 0 266 225" fill="none" xmlns="http://www.w3.org/2000/svg">
<path d="M101.183 1.70284C101.682 0.662124 102.734 0 103.889 0H156.234C158.443 0 159.894 2.30574 158.939 4.29716L81.0556 166.713C80.1019 168.702 77.4001 169.016 76.0154 167.299L43.1884 126.597C42.4624 125.697 42.3185 124.46 42.8185 123.417L101.183 1.70284Z" fill="#0C4471"/>
<circle cx="144" cy="122" r="17" fill="#0092FF"/>
<circle cx="261" cy="211" r="5" fill="#0092FF"/>
<path d="M19.98 208.908H5.364L2.16 216H0.18L11.772 190.8H13.608L25.2 216H23.22L19.98 208.908ZM19.296 207.36L12.672 192.816L6.084 207.36H19.296ZM29.7748 190.8H31.6108V214.344H46.1188V216H29.7748V190.8ZM53.3019 192.456H44.2299V190.8H64.2099V192.456H55.1379V216H53.3019V192.456ZM68.7631 190.8H70.5991V216H68.7631V190.8ZM99.9003 190.8V216H98.3883L81.2163 194.112V216H79.3803V190.8H80.9283L98.0643 212.688V190.8H99.9003ZM119.783 192.456V203.22H133.211V204.876H119.783V216H117.947V190.8H134.795V192.456H119.783ZM139.73 197.208H141.53V216H139.73V197.208ZM140.63 192.636C140.222 192.636 139.874 192.504 139.586 192.24C139.298 191.952 139.154 191.604 139.154 191.196C139.154 190.788 139.298 190.44 139.586 190.152C139.874 189.864 140.222 189.72 140.63 189.72C141.038 189.72 141.386 189.864 141.674 190.152C141.962 190.416 142.106 190.752 142.106 191.16C142.106 191.568 141.962 191.916 141.674 192.204C141.386 192.492 141.038 192.636 140.63 192.636ZM158.297 197.064C160.649 197.064 162.509 197.748 163.877 199.116C165.245 200.484 165.929 202.452 165.929 205.02V216H164.129V205.164C164.129 203.052 163.589 201.444 162.509 200.34C161.453 199.236 159.965 198.684 158.045 198.684C155.837 198.684 154.097 199.344 152.825 200.664C151.553 201.984 150.917 203.76 150.917 205.992V216H149.117V197.208H150.845V201.276C151.493 199.956 152.453 198.924 153.725 198.18C155.021 197.436 156.545 197.064 158.297 197.064ZM182.663 214.812C182.207 215.244 181.631 215.58 180.935 215.82C180.263 216.036 179.555 216.144 178.811 216.144C177.179 216.144 175.919 215.7 175.031 214.812C174.143 213.9 173.699 212.64 173.699 211.032V198.756H170.243V197.208H173.699V193.104H175.499V197.208H181.475V198.756H175.499V210.852C175.499 212.076 175.787 213.012 176.363 213.66C176.963 214.284 177.839 214.596 178.991 214.596C180.167 214.596 181.139 214.248 181.907 213.552L182.663 214.812ZM202.891 207.036H186.727C186.775 208.5 187.147 209.808 187.843 210.96C188.539 212.088 189.475 212.964 190.651 213.588C191.851 214.212 193.195 214.524 194.683 214.524C195.907 214.524 197.035 214.308 198.067 213.876C199.123 213.42 199.999 212.76 200.695 211.896L201.739 213.084C200.923 214.068 199.891 214.824 198.643 215.352C197.419 215.88 196.087 216.144 194.647 216.144C192.775 216.144 191.107 215.736 189.643 214.92C188.179 214.104 187.027 212.976 186.187 211.536C185.371 210.096 184.963 208.452 184.963 206.604C184.963 204.78 185.347 203.148 186.115 201.708C186.907 200.244 187.987 199.104 189.355 198.288C190.723 197.472 192.259 197.064 193.963 197.064C195.667 197.064 197.191 197.472 198.535 198.288C199.903 199.08 200.971 200.196 201.739 201.636C202.531 203.076 202.927 204.708 202.927 206.532L202.891 207.036ZM193.963 198.648C192.643 198.648 191.455 198.948 190.399 199.548C189.343 200.124 188.491 200.952 187.843 202.032C187.219 203.088 186.859 204.288 186.763 205.632H201.163C201.091 204.288 200.731 203.088 200.083 202.032C199.435 200.976 198.583 200.148 197.527 199.548C196.471 198.948 195.283 198.648 193.963 198.648ZM215.948 216.144C214.124 216.144 212.492 215.736 211.052 214.92C209.612 214.104 208.484 212.976 207.668 211.536C206.852 210.072 206.444 208.428 206.444 206.604C206.444 204.756 206.852 203.112 207.668 201.672C208.484 200.208 209.612 199.08 211.052 198.288C212.492 197.472 214.124 197.064 215.948 197.064C217.46 197.064 218.828 197.364 220.052 197.964C221.3 198.54 222.308 199.392 223.076 200.52L221.744 201.492C221.072 200.556 220.232 199.86 219.224 199.404C218.24 198.924 217.148 198.684 215.948 198.684C214.484 198.684 213.164 199.02 211.988 199.692C210.836 200.34 209.924 201.264 209.252 202.464C208.604 203.664 208.28 205.044 208.28 206.604C208.28 208.164 208.604 209.544 209.252 210.744C209.924 211.944 210.836 212.88 211.988 213.552C213.164 214.2 214.484 214.524 215.948 214.524C217.148 214.524 218.24 214.296 219.224 213.84C220.232 213.36 221.072 212.652 221.744 211.716L223.076 212.688C222.308 213.816 221.3 214.68 220.052 215.28C218.828 215.856 217.46 216.144 215.948 216.144ZM237.328 197.064C239.68 197.064 241.54 197.748 242.908 199.116C244.276 200.484 244.96 202.452 244.96 205.02V216H243.16V205.164C243.16 203.052 242.62 201.444 241.54 200.34C240.484 199.236 238.996 198.684 237.076 198.684C234.868 198.684 233.128 199.344 231.856 200.664C230.584 201.984 229.948 203.76 229.948 205.992V216H228.148V189.288H229.948V201.132C230.596 199.836 231.556 198.84 232.828 198.144C234.1 197.424 235.6 197.064 237.328 197.064Z" fill="#0C4471"/>
</svg>
