<svg width="200" height="200" viewBox="0 0 200 200" fill="none" xmlns="http://www.w3.org/2000/svg">
<path fill-rule="evenodd" clip-rule="evenodd" d="M0 100C0 44.7715 44.7715 0 100 0C155.228 0 200 44.7715 200 100C200 155.228 155.228 200 100 200C44.7715 200 0 155.228 0 100ZM100 6.66561C48.4528 6.66561 6.66561 48.4528 6.66561 100C6.66561 151.547 48.4528 193.334 100 193.334C151.547 193.334 193.334 151.547 193.334 100C193.334 48.4528 151.547 6.66561 100 6.66561Z" fill="black"/>
<path fill-rule="evenodd" clip-rule="evenodd" d="M82.3449 153.007C82.3449 160.536 88.658 166.64 96.4454 166.64C96.514 166.64 96.5829 166.64 96.6514 166.639C96.72 166.64 96.7889 166.64 96.8574 166.64C104.645 166.64 110.958 160.536 110.958 153.007H82.3449ZM39.9937 146.267H153.309V139.35L139.053 125.617V91.9338C138.846 86.5206 138.639 81.1074 136.847 75.5815C135.054 70.0554 131.676 64.4168 127.788 60.2566C123.9 56.0964 119.502 53.4149 116.007 51.7067C112.512 49.9982 109.92 49.2633 107.328 48.528V43.3406C107.328 41.5193 106.655 39.4976 105.692 38.0483C104.729 36.599 103.139 35.2203 101.528 34.4456C99.9162 33.6709 98.284 33.4995 96.6514 33.3281C95.0188 33.4995 93.3866 33.6709 91.7752 34.4456C90.1642 35.2203 88.5741 36.599 87.6109 38.0483C86.648 39.4976 85.9747 41.5193 85.9747 43.3406V48.528C83.3825 49.2633 80.7907 49.9982 77.2956 51.7067C73.8006 53.4149 69.4025 56.0964 65.5147 60.2566C61.6266 64.4168 58.2484 70.0554 56.4559 75.5815C54.6636 81.1074 54.4566 86.5206 54.2499 91.9338V125.617L39.9937 139.35V146.267Z" fill="black"/>
</svg>
