<svg width="31" height="31" viewBox="0 0 31 31" fill="none" xmlns="http://www.w3.org/2000/svg">
<path fill-rule="evenodd" clip-rule="evenodd" d="M0 15.0024C0 6.71679 6.71679 0 15.0024 0C23.2879 0 30.0047 6.71679 30.0047 15.0024C30.0047 23.2879 23.2879 30.0047 15.0024 30.0047C6.71679 30.0047 0 23.2879 0 15.0024ZM15.0024 1C7.26907 1 1 7.26907 1 15.0024C1 22.7357 7.26907 29.0047 15.0024 29.0047C22.7357 29.0047 29.0047 22.7357 29.0047 15.0024C29.0047 7.26907 22.7357 1 15.0024 1Z" fill="white"/>
<path d="M15 15C11.6863 15 8 17.4733 8 20.5243V24H22V20.5243C22 17.4733 18.3137 15 15 15Z" fill="white"/>
<path d="M18.9131 8.91304C18.9131 11.0742 17.1611 12.8261 15 12.8261C12.8389 12.8261 11.0869 11.0742 11.0869 8.91304C11.0869 6.75193 12.8389 5 15 5C17.1611 5 18.9131 6.75193 18.9131 8.91304Z" fill="white"/>
</svg>
