<svg width="36" height="30" viewBox="0 0 36 30" fill="none" xmlns="http://www.w3.org/2000/svg">
<path d="M6.0017 6.0006V12.0063L11.0006 12.001C12.6605 11.9956 14.004 13.3396 14.004 14.9973C14.004 16.6551 12.6605 17.9988 11.0006 18.0042L6.0017 18.0095V23.9993C6.0017 27.3094 8.6863 29.9946 11.9955 29.9999H30.0006C33.315 29.9946 35.9997 27.3094 35.9997 23.9993V21.0031C35.9997 20.4479 35.552 19.9999 34.9968 20.0052H26.9945C25.3399 19.9999 23.9964 18.6561 23.9964 17.0011V12.9989C23.9964 11.3385 25.3399 9.9946 26.9945 9.9999H34.9968C35.552 9.9946 35.9997 9.5467 35.9997 8.9968V6.0006C35.9997 2.6852 33.315 0 30.0006 0H11.9955C8.6863 0 6.0017 2.6852 6.0017 6.0006ZM11.0006 16.0032H0.9977C0.4478 15.9979 0 15.5499 0 14.9973C0 14.4447 0.4478 13.9967 0.9977 14.002L10.9979 14.0073C11.5503 14.0073 12.0034 14.4447 12.0034 14.9973C12.0034 15.5499 11.5556 15.9979 11.0006 16.0032ZM25.9969 12.9989V17.0011C25.9969 17.551 26.4447 17.9988 26.9945 18.0042H34.9968C35.552 17.9988 35.9997 17.551 35.9997 17.0011V12.9989C35.9997 12.4436 35.552 11.9956 34.9968 12.001H26.9945C26.4447 11.9956 25.9969 12.4436 25.9969 12.9989ZM26.497 4.0021H15.5017C15.2241 4.0021 14.999 3.7769 14.999 3.4992C14.999 3.2213 15.2188 3.0068 15.4964 3.0068L26.497 3.0015C26.7774 2.9962 27.0025 3.2213 27.0025 3.4992C27.0025 3.7769 26.7774 4.0021 26.497 4.0021Z" fill="#F1BA4D"/>
</svg>
