<svg width="30" height="33" viewBox="0 0 30 33" fill="none" xmlns="http://www.w3.org/2000/svg">
<path d="M17.9932 5.0079C17.9932 6.6667 19.3384 8.0058 20.9977 8.0058C22.6571 8.0058 23.9909 6.6667 23.9909 5.0079V3.0093C27.3065 3.0093 30 5.6963 30 9.0107V27.004C30 30.3186 27.3065 32.9999 23.9909 32.9999H5.9977C2.6821 32.9999 0 30.3129 0 26.9983V9.0164C0 5.702 2.6878 3.0093 6.0034 3.0093L5.9977 5.0079C5.9977 6.6667 7.3429 8.0058 9.0023 8.0058C10.6616 8.0058 12.0068 6.661 12.0068 5.0022L11.9954 4.0086C11.9954 3.4535 12.4399 3.0093 12.9951 3.0093L16.9993 2.9979C17.5545 2.9979 18.0046 3.4478 18.0046 4.0029L17.9932 5.0079ZM24.4907 11.0151C24.7699 11.0151 25.0019 10.7889 25.0019 10.5097C25.0019 10.2306 24.7756 10.0044 24.4964 10.0044L10.496 10.0158C10.2168 10.0158 9.9963 10.2306 9.9963 10.5097C9.9963 10.7889 10.2168 11.0151 10.496 11.0151H24.4907ZM10.4989 16.0117H24.4935C24.7756 16.0117 25.0019 15.7854 25.0019 15.5063C25.0019 15.2272 24.7699 15.0123 24.4907 15.0123L10.4989 15.0066C10.2225 15.001 9.9963 15.2272 9.9963 15.5063C9.9963 15.7854 10.2225 16.0117 10.4989 16.0117ZM10.4989 21.0082H24.4935C24.7756 21.0082 25.0019 20.782 25.0019 20.5029C25.0019 20.2238 24.7756 19.9975 24.4935 20.0032H10.4989C10.2225 19.9975 9.9963 20.2238 9.9963 20.5029C9.9963 20.782 10.2225 21.0082 10.4989 21.0082ZM10.4989 26.0048H24.4935C24.7756 26.0048 25.0019 25.7786 25.0019 25.4994C25.0019 25.2203 24.7756 24.9941 24.4935 24.9998H10.4989C10.2225 24.9941 9.9963 25.2203 9.9963 25.4994C9.9963 25.7786 10.2225 26.0048 10.4989 26.0048ZM7.4972 11.0151C7.7763 11.0151 8.0084 10.7889 8.0084 10.5097C8.0084 10.2306 7.782 10.0044 7.5028 10.0044L5.498 10.0158C5.2188 10.0158 4.9981 10.2306 4.9981 10.5097C4.9981 10.7889 5.2245 11.0151 5.5037 11.0151H7.4972ZM5.5009 15.0066C5.2245 15.001 4.9981 15.2272 4.9981 15.5063C4.9981 15.7854 5.2245 16.0117 5.5009 16.0117H7.4972H7.5001C7.782 16.0117 8.0084 15.7854 8.0084 15.5063C8.0084 15.2272 7.7763 15.0123 7.4972 15.0123L5.5009 15.0066ZM7.5001 21.0082C7.782 21.0082 8.0084 20.782 8.0084 20.5029C8.0084 20.2238 7.782 19.9975 7.5001 20.0032H5.5009C5.2245 19.9975 4.9981 20.2238 4.9981 20.5029C4.9981 20.782 5.2245 21.0082 5.5009 21.0082H7.5001ZM7.5001 26.0048C7.782 26.0048 8.0084 25.7786 8.0084 25.4994C8.0084 25.2203 7.782 24.9941 7.5001 24.9998H5.5009C5.2245 24.9941 4.9981 25.2203 4.9981 25.4994C4.9981 25.7786 5.2245 26.0048 5.5009 26.0048H7.5001ZM22.003 5.0022V1.005C22.003 0.4499 21.553 0 20.9977 0C20.4425 0 19.9925 0.4499 19.9925 1.0079V5.005C19.9925 5.5572 20.4425 6.0072 20.9977 6.0072C21.553 6.0072 22.003 5.5572 22.003 5.0022ZM10.0075 5.0022V1.005C10.0075 0.4499 9.5575 0 9.0023 0C8.447 0 7.997 0.4499 7.997 1.0079V5.005C7.997 5.5572 8.447 6.0072 9.0023 6.0072C9.5575 6.0072 10.0075 5.5572 10.0075 5.0022Z" fill="#72A7F7"/>
</svg>
